<svg width="134" height="36" viewBox="0 0 134 36" fill="none" xmlns="http://www.w3.org/2000/svg">
<rect width="36" height="36" rx="18" fill="#FEFA17"/>
<g clip-path="url(#clip0_907_12543)">
<path d="M36 35.9999H1.125C2.65423 35.2451 4.11995 34.3627 5.50726 33.3615C8.11772 31.4778 11.6613 29.588 15.7365 29.2258C22.6642 28.61 31.2457 33.7057 36 35.9999Z" fill="black"/>
<path d="M18.5593 24.2569C17.0828 20.7129 14.4251 19.1733 13.0195 19.0344C12.6168 19.0078 12.213 19.0659 11.8331 19.2051C11.4532 19.3442 11.1052 19.5615 10.8106 19.8435C11.0325 19.5686 11.2732 19.3103 11.5312 19.0707C11.1591 18.7265 10.7221 18.3944 10.7221 18.3944C11.1119 18.5816 11.5371 18.8292 11.6906 18.9258C12.0942 18.5659 12.5247 18.2389 12.9782 17.9477C12.5899 17.6268 12.1815 17.3324 11.7556 17.0662C12.2898 17.247 12.806 17.4795 13.2971 17.7605C13.9061 17.4039 14.5397 17.0932 15.1929 16.8307C14.9385 16.6143 14.6723 16.4127 14.3956 16.227C14.7778 16.3646 15.149 16.5321 15.5059 16.7281C16.209 16.4557 16.9292 16.2318 17.6616 16.0579C14.0353 15.0255 11.2004 16.1787 10.2082 17.2232C9.80527 17.654 9.5503 18.207 9.4818 18.799C9.0491 17.7912 8.29274 16.9648 7.33791 16.4564C5.17631 15.5326 3.01471 17.3439 3.01471 17.3439C3.91305 17.1663 4.84309 17.276 5.67832 17.6579L6.48154 17.1205L5.93819 17.7786C6.78858 18.2274 7.5576 18.8217 8.212 19.5355C7.66798 19.1948 7.02417 19.0602 6.39295 19.1552C4.99323 19.3906 2.44774 21.1174 1.21338 24.758C1.75682 24.2569 2.33517 23.7969 2.94384 23.3815C2.99376 22.9741 3.07071 22.5707 3.17417 22.174C3.16955 22.5168 3.18533 22.8595 3.22142 23.2004C3.80448 22.7975 4.41651 22.4402 5.05229 22.1317C5.10362 21.5588 5.21045 20.9925 5.37121 20.4412C5.33717 20.9518 5.33717 21.4641 5.37121 21.9747C5.85871 21.7572 6.36229 21.5796 6.87724 21.4434C6.87724 21.2563 6.9304 20.7612 7.00127 20.3265C7.00127 20.3265 7.00127 20.8819 7.08395 21.3891C7.27688 21.3448 7.47375 21.3086 7.67456 21.2804C6.96583 21.9928 6.25121 23.5324 6.31617 26.841C6.31617 26.841 6.7355 25.8569 7.27295 24.8305C7.16899 24.4181 7.11348 23.9945 7.10758 23.5686C7.10758 23.5686 7.26114 24.0698 7.43241 24.5226C7.59187 24.2207 7.76315 23.9188 7.92851 23.6592L7.96986 23.5928C7.9108 23.2668 7.80449 22.6147 7.77496 22.1619C7.77496 22.1619 7.94623 22.7656 8.14704 23.3151C8.5501 22.6797 9.02377 22.0942 9.55857 21.5702C12.8541 27.3542 12.5116 35.7766 12.5116 35.7766L14.059 35.6377C13.6337 27.6078 11.0823 22.82 10.1315 21.2925C10.8989 21.15 11.6851 21.15 12.4525 21.2925C12.4525 20.7793 12.4525 20.2238 12.4525 20.2238C12.5529 20.6525 12.6238 21.1476 12.6474 21.3287C13.1712 21.4282 13.6866 21.5695 14.1889 21.7513C14.1998 21.2331 14.1761 20.7146 14.118 20.1997C14.3154 20.7392 14.4598 21.2974 14.5492 21.866C15.2143 22.1201 15.8599 22.4248 16.4804 22.7777C16.4997 22.4359 16.4997 22.0932 16.4804 21.7513C16.61 22.1461 16.7126 22.5496 16.7875 22.9588C17.4079 23.3475 18 23.7813 18.5593 24.2569Z" fill="black"/>
<path d="M9.57051 17.821C10.421 12.4415 13.5512 9.41063 15.4411 8.72838C15.9839 8.55036 16.5569 8.48904 17.1241 8.54826C17.6912 8.60749 18.2402 8.78598 18.7366 9.07253C18.3409 8.77967 17.9243 8.51732 17.4905 8.28764C17.8862 7.68389 18.3764 7.08013 18.3764 7.08013C17.9039 7.47257 17.4078 7.96161 17.2247 8.14274C16.5538 7.79442 15.8566 7.50166 15.1399 7.26729C15.5625 6.68745 16.0222 6.13683 16.516 5.61904C15.8417 6.04042 15.2106 6.5299 14.632 7.08013C13.6751 6.8067 12.7 6.60491 11.7144 6.47637C11.9895 6.08203 12.2853 5.70313 12.6003 5.34131C12.1254 5.66889 11.6734 6.03001 11.2478 6.42203C10.2117 6.29025 9.16733 6.23778 8.12354 6.26506C12.7598 3.5723 17.0298 4.17002 18.7307 5.26886C19.4253 5.72057 19.9611 6.38672 20.2604 7.17069C20.6029 5.68545 21.2408 4.09757 22.4161 3.21005C25.0384 1.21765 28.6056 2.9444 28.6056 2.9444C27.3157 3.01303 26.078 3.48749 25.062 4.30285L23.7804 3.84399L24.749 4.56246C23.7304 5.46886 22.8714 6.5471 22.2094 7.7503C22.8478 7.11047 23.6818 6.71405 24.5718 6.62731C26.5798 6.47637 30.655 7.94954 33.543 12.5139C32.6252 12.0029 31.674 11.5571 30.6963 11.1796C30.497 10.631 30.2582 10.0982 29.9817 9.58572C30.1006 10.0549 30.1933 10.5306 30.2593 11.0106C29.3237 10.6632 28.3643 10.3867 27.3889 10.1834C27.131 9.41393 26.7965 8.67348 26.3908 7.97369C26.5977 8.66598 26.7575 9.37204 26.8692 10.0868C26.1278 9.95561 25.3773 9.88495 24.6249 9.87552C24.5422 9.62798 24.3237 8.95781 24.0816 8.39028C24.0816 8.39028 24.241 9.16309 24.3237 9.87552C24.0461 9.87552 23.7331 9.87552 23.491 9.92382C24.6722 10.6604 26.19 12.52 27.194 17.0844C27.194 17.0844 26.2904 15.8769 25.2155 14.6694C25.2242 14.0597 25.1587 13.4513 25.0206 12.8581C25.0206 12.8581 24.9793 13.6007 24.8966 14.2829C24.5777 13.9267 24.2469 13.5766 23.928 13.2686L23.8512 13.1962C23.8512 12.7253 23.7508 11.8015 23.6386 11.1676C23.6386 11.1676 23.6386 12.0611 23.5087 12.8822C22.7572 12.1646 21.9268 11.5385 21.0341 11.0166C18.4413 20.073 21.6896 31.5444 21.6896 31.5444L19.5162 31.8945C17.4491 20.7431 19.3568 13.2626 20.1541 10.8295C19.0547 10.8928 17.975 11.1544 16.9648 11.6023C16.7522 10.914 16.5928 10.1412 16.5928 10.1412C16.598 10.6718 16.6295 11.2017 16.6873 11.7291C15.9994 12.0439 15.3377 12.4154 14.7087 12.84C14.5304 12.1373 14.3982 11.4233 14.313 10.7027C14.2239 11.5045 14.212 12.3134 14.2776 13.1177C13.4664 13.7075 12.6985 14.3573 11.9802 15.0618C11.8503 14.5951 11.7458 14.1214 11.6671 13.643C11.6274 14.2279 11.6274 14.815 11.6671 15.3999C10.9112 16.1533 10.2104 16.9625 9.57051 17.821Z" fill="black"/>
</g>
<text x="46" y="26" font-family="Arial, Helvetica, sans-serif" font-size="16" font-weight="bold" fill="#ffffff" letter-spacing="2">TOURZ</text>
<defs>
<clipPath id="clip0_907_12543">
<rect width="34.875" height="33.75" fill="white" transform="translate(1.125 2.25)"/>
</clipPath>
</defs>
</svg>
