<svg xmlns="http://www.w3.org/2000/svg" xmlns:xlink="http://www.w3.org/1999/xlink" width="31.664374351501465" height="40.303369696577874" viewBox="67 851.3480601444608 31.664374351501465 40.303369696577874"><g transform="matrix(1,0,0,1,67,851.347900390625)"><g transform="matrix(1,0,0,1,0,0.000507354736328125)"><path d="M 34.44284057617188 1.282552123069763 L 34.44284057617188 16.51285743713379 C 34.44284057617188 17.91256713867188 33.50079345703125 19.14990043640137 32.14493560791016 19.52192306518555 L 8.824000358581543 26.04635810852051 L 8.824000358581543 9.143664360046387 C 8.824000358581543 7.744641304016113 9.765359878540039 6.507307529449463 11.12190628051758 6.135285377502441 L 32.82183837890625 0.04590330645442009 C 32.93693923950195 0.01507272757589817 33.0527229309082 0 33.16782379150391 0 C 33.78100967407227 0 34.44284057617188 0.4912338852882385 34.44284057617188 1.282552123069763" transform="matrix(1,0,0,1,-2.77846622467041,-0.00034760090056806803)" fill="#b0f5ff" fill-rule="evenodd"/><path d="M 34.44284057617188 8.013551712036133 L 34.44284057617188 23.24385833740234 C 34.44284057617188 24.6435661315918 33.50079345703125 25.88089942932129 32.14493560791016 26.25292205810547 L 8.824000358581543 32.77735900878906 L 8.824000358581543 15.87466430664062 C 8.824000358581543 14.47564125061035 9.765359878540039 13.23830795288086 11.12190628051758 12.86628532409668 L 32.82183837890625 6.77690315246582 C 32.93693923950195 6.746072769165039 33.0527229309082 6.730999946594238 33.16782379150391 6.730999946594238 C 33.78100967407227 6.730999946594238 34.44284057617188 7.222233772277832 34.44284057617188 8.013551712036133" transform="matrix(1,0,0,1,-2.77846622467041,-2.1197781562805176)" fill="#12d1fa" fill-rule="evenodd"/><path d="M 19.9898624420166 42.83665466308594 C 21.21897506713867 42.48450088500977 22.06647300720215 41.35952377319336 22.06647300720215 40.08108520507812 L 22.06647300720215 39.0472297668457 L 23.84985160827637 38.56353759765625 C 26.10664939880371 37.94281387329102 27.67284202575684 35.88812637329102 27.67284202575684 33.5477409362793 L 27.67284202575684 31.30944442749023 L 6.057866096496582 37.26385498046875 L 6.057866096496582 30.64555740356445 L 12.38635635375977 28.94850730895996 C 14.64658069610596 28.32709884643555 16.20934867858887 26.27172660827637 16.20934867858887 23.93202972412109 L 16.20934867858887 21.34499931335449 L 0 25.71814727783203 L 0.002055371878668666 42.91338729858398 C 0.002055371878668666 45.61962890625 2.571955442428589 47.58593368530273 5.183648109436035 46.87957000732422 L 19.9898624420166 42.83665466308594 Z" transform="matrix(1,0,0,1,0,-6.721376419067383)" fill="#7d00d6" fill-rule="evenodd"/></g></g></svg>