<svg xmlns="http://www.w3.org/2000/svg" xmlns:xlink="http://www.w3.org/1999/xlink" width="37.285224643884476" height="53.000016755198885" viewBox="66.0000002706663 662.9999999341017 37.285224643884476 53.000016755198885"><defs><clipPath id="clip-3f121e7f"><rect x="0" y="0" width="1.3151931762695312" height="9.307116508483887" fill="#cccccc"/></clipPath><linearGradient id="gradient-ad57add7" x1="-28.212753295898438" y1="-1.3996859788894653" x2="0.9999934434890747" y2="-1.3590294122695923"><stop offset="0" stop-color="#d1af56"></stop><stop offset="0.2719529867172241" stop-color="#eede90"></stop><stop offset="0.6484820246696472" stop-color="#bf9a3f"></stop><stop offset="1" stop-color="#dbbe6e"></stop></linearGradient><clipPath id="clip-26ed38f2"><path d="M 97.26871490478516 144.8990020751953 L 97.26871490478516 153.0541229248047 L 95.21134948730469 153.0541229248047 L 95.21134948730469 152.1379699707031 C 95.21134948730469 149.7669830322266 93.28254699707031 147.8384704589844 90.91184997558594 147.8384704589844 L 90.77703094482422 147.8384704589844 L 90.77703094482422 149.1536560058594 L 90.91184997558594 149.1536560058594 C 92.55740356445312 149.1536560058594 93.89643859863281 150.4924163818359 93.89643859863281 152.1379699707031 L 93.89643859863281 153.0541229248047 L 89.60800170898438 153.0541229248047 L 89.60800170898438 154.3693084716797 L 98.58362579345703 154.3693084716797 L 98.58362579345703 144.8990020751953 L 97.26871490478516 144.8990020751953 Z" transform="matrix(1,0,0,1,-89.60800170898438,-144.8990020751953)" fill="#cccccc"/></clipPath><linearGradient id="gradient-76699563" x1="-2.880887746810913" y1="-1.2556620836257935" x2="1.3562684059143066" y2="-1.375537395477295"><stop offset="0" stop-color="#d1af56"></stop><stop offset="0.2719529867172241" stop-color="#eede90"></stop><stop offset="0.6484820246696472" stop-color="#bf9a3f"></stop><stop offset="1" stop-color="#dbbe6e"></stop></linearGradient><clipPath id="clip-2d4d8fe7"><path d="M 18.20611000061035 160.1437072753906 C 18.20611000061035 159.5599060058594 18.68121337890625 159.0850830078125 19.26473426818848 159.0850830078125 C 19.84854125976562 159.0850830078125 20.32336235046387 159.5599060058594 20.32336235046387 160.1437072753906 L 20.32336235046387 161.0067901611328 L 18.20611000061035 161.0067901611328 L 18.20611000061035 160.1437072753906 Z M 5.50429105758667 156.0638885498047 C 5.45888090133667 156.0670013427734 4.389753341674805 156.1640625 3.201707363128662 156.8954620361328 C 2.118388652801514 157.5621337890625 0.7089676856994629 158.9076995849609 0.1495700478553772 161.5278778076172 C 0.09309104084968567 161.7929534912109 0.04342356324195862 162.0526428222656 0 162.3086547851562 L 1.335345506668091 162.3086547851562 C 1.365713596343994 162.1417694091797 1.398919820785522 161.9731750488281 1.435531854629517 161.8020324707031 C 2.060774564743042 158.8750610351562 3.879739284515381 157.8746185302734 4.901470184326172 157.53857421875 L 4.901470184326172 162.3086547851562 L 4.901470184326172 162.3219909667969 L 6.023387432098389 162.3219909667969 L 24.11086273193359 162.3219909667969 L 24.11086273193359 158.0679016113281 C 24.11086273193359 156.9613037109375 23.21145439147949 156.0618896484375 22.10457992553711 156.0618896484375 L 19.13758659362793 156.0618896484375 L 19.13758659362793 157.3770904541016 L 22.10457992553711 157.3770904541016 C 22.48602485656738 157.3770904541016 22.79566764831543 157.6867370605469 22.79566764831543 158.0679016113281 L 22.79566764831543 161.0067901611328 L 21.63827323913574 161.0067901611328 L 21.63827323913574 160.1437072753906 C 21.63827323913574 158.8347625732422 20.57368659973145 157.7698974609375 19.26473426818848 157.7698974609375 C 17.95578384399414 157.7698974609375 16.89091491699219 158.8347625732422 16.89091491699219 160.1437072753906 L 16.89091491699219 161.0067901611328 L 14.98396682739258 161.0067901611328 L 14.98396682739258 156.0894165039062 L 13.66877269744873 156.0894165039062 L 13.66877269744873 161.0067901611328 L 11.07215690612793 161.0067901611328 L 11.07215690612793 156.0894165039062 L 9.756961822509766 156.0894165039062 L 9.756961822509766 161.0067901611328 L 6.216664791107178 161.0067901611328 L 6.216664791107178 156.0039978027344 L 5.50429105758667 156.0638885498047 Z" transform="matrix(1,0,0,1,0,-156.00399780273438)" fill="#cccccc"/></clipPath><linearGradient id="gradient-c651c543" x1="-0.029428038746118546" y1="-1.6622750759124756" x2="1.5420292615890503" y2="-1.729657530784607"><stop offset="0" stop-color="#d1af56"></stop><stop offset="0.2719529867172241" stop-color="#eede90"></stop><stop offset="0.6484820246696472" stop-color="#bf9a3f"></stop><stop offset="1" stop-color="#dbbe6e"></stop></linearGradient><clipPath id="clip-48055892"><rect x="0" y="0" width="1.2927733659744263" height="1.3151942491531372" fill="#cccccc"/></clipPath><linearGradient id="gradient-2ae13c9e" x1="-20.94957160949707" y1="-0.974086582660675" x2="7.919897079467773" y2="-1.5135774612426758"><stop offset="0" stop-color="#d1af56"></stop><stop offset="0.2719529867172241" stop-color="#eede90"></stop><stop offset="0.6484820246696472" stop-color="#bf9a3f"></stop><stop offset="1" stop-color="#dbbe6e"></stop></linearGradient><clipPath id="clip-42b373b6"><rect x="0" y="0" width="1.2927731275558472" height="1.3151942491531372" fill="#cccccc"/></clipPath><linearGradient id="gradient-6a6e3809" x1="-3.2368898391723633" y1="-1.6214755773544312" x2="25.303203582763672" y2="-2.268864631652832"><stop offset="0" stop-color="#d1af56"></stop><stop offset="0.2719529867172241" stop-color="#eede90"></stop><stop offset="0.6484820246696472" stop-color="#bf9a3f"></stop><stop offset="1" stop-color="#dbbe6e"></stop></linearGradient><clipPath id="clip-784cbfb6"><rect x="0" y="0" width="1.2927732467651367" height="1.3151942491531372" fill="#cccccc"/></clipPath><linearGradient id="gradient-789c8af1" x1="-1.757195234298706" y1="-0.7582902312278748" x2="27.661012649536133" y2="-1.4056792259216309"><stop offset="0" stop-color="#d1af56"></stop><stop offset="0.2719529867172241" stop-color="#eede90"></stop><stop offset="0.6484820246696472" stop-color="#bf9a3f"></stop><stop offset="1" stop-color="#dbbe6e"></stop></linearGradient><clipPath id="clip-5deef501"><rect x="0" y="0" width="1.2927733659744263" height="1.3151946067810059" fill="#cccccc"/></clipPath><linearGradient id="gradient-ef742243" x1="-7.774531841278076" y1="-1.3180643320083618" x2="21.094816207885742" y2="-1.2101662158966064"><stop offset="0" stop-color="#d1af56"></stop><stop offset="0.2719529867172241" stop-color="#eede90"></stop><stop offset="0.6484820246696472" stop-color="#bf9a3f"></stop><stop offset="1" stop-color="#dbbe6e"></stop></linearGradient><clipPath id="clip-05396927"><rect x="0" y="0" width="1.2927733659744263" height="1.3151946067810059" fill="#cccccc"/></clipPath><linearGradient id="gradient-a291c872" x1="-10.5394287109375" y1="-1.8575551509857178" x2="18.439762115478516" y2="-1.9654532670974731"><stop offset="0" stop-color="#d1af56"></stop><stop offset="0.2719529867172241" stop-color="#eede90"></stop><stop offset="0.6484820246696472" stop-color="#bf9a3f"></stop><stop offset="1" stop-color="#dbbe6e"></stop></linearGradient><clipPath id="clip-01831196"><rect x="0" y="0" width="1.2927733659744263" height="1.3151946067810059" fill="#cccccc"/></clipPath><linearGradient id="gradient-f8b7fdf7" x1="-5.745987415313721" y1="-1.6417587995529175" x2="23.01361656188965" y2="-1.4259625673294067"><stop offset="0" stop-color="#d1af56"></stop><stop offset="0.2719529867172241" stop-color="#eede90"></stop><stop offset="0.6484820246696472" stop-color="#bf9a3f"></stop><stop offset="1" stop-color="#dbbe6e"></stop></linearGradient><clipPath id="clip-c2dedc1a"><path d="M 36.16392135620117 56.82022094726562 L 36.16392135620117 56.82447814941406 L 36.16704177856445 56.81794738769531 L 36.16392135620117 56.82022094726562 M 19.62266731262207 63.22136306762695 L 19.63146591186523 61.42964172363281 L 24.42054557800293 59.97452926635742 L 24.42934226989746 62.47776794433594 C 28.6059513092041 61.19947052001953 32.56317138671875 59.29167175292969 36.16392135620117 56.82022094726562 C 36.16023254394531 55.88590240478516 34.9798469543457 55.42640686035156 33.16826248168945 55.16019058227539 C 26.28832626342773 54.14697265625 10.28631687164307 55.92336273193359 14.98173809051514 45.05300140380859 C 7.971245288848877 52.3444709777832 9.359096527099609 63.34964752197266 19.62266731262207 63.22136306762695" transform="matrix(1,0,0,1,-10.626852035522461,-45.053001403808594)" fill="#cccccc"/></clipPath><linearGradient id="gradient-3c9a9a38" x1="0" y1="0.3869735300540924" x2="1.295774221420288" y2="0.3869735300540924"><stop offset="0" stop-color="#d1af56"></stop><stop offset="0.2719529867172241" stop-color="#eede90"></stop><stop offset="0.6484820246696472" stop-color="#bf9a3f"></stop><stop offset="1" stop-color="#dbbe6e"></stop></linearGradient><clipPath id="clip-3c6be954"><path d="M 106.1380004882812 112.2323760986328 L 106.1380004882812 113.5580673217773 L 109.1183319091797 112.6515655517578 L 109.1183319091797 111.3270034790039 L 106.1380004882812 112.2323760986328 Z" transform="matrix(1,0,0,1,-106.13800048828125,-111.3270034790039)" fill="#cccccc"/></clipPath><linearGradient id="gradient-f758b93f" x1="-10.043938636779785" y1="-1.568110466003418" x2="2.653273105621338" y2="-1.9073485136032104"><stop offset="0" stop-color="#d1af56"></stop><stop offset="0.2719529867172241" stop-color="#eede90"></stop><stop offset="0.6484820246696472" stop-color="#bf9a3f"></stop><stop offset="1" stop-color="#dbbe6e"></stop></linearGradient><clipPath id="clip-1037490e"><path d="M 53.29064178466797 126.6428909301758 L 50.93299865722656 127.3612213134766 L 50.93299865722656 128.8123626708984 L 53.29064178466797 128.09375 L 53.97747039794922 127.8848571777344 L 53.97747039794922 126.4340057373047 L 53.29064178466797 126.6428909301758 Z" transform="matrix(1,0,0,1,-50.93299865722656,-126.43400573730469)" fill="#cccccc"/></clipPath><linearGradient id="gradient-47a6cf03" x1="-4.748111724853516" y1="-1.6031122207641602" x2="7.495138168334961" y2="-2.0008749961853027"><stop offset="0" stop-color="#d1af56"></stop><stop offset="0.2719529867172241" stop-color="#eede90"></stop><stop offset="0.6484820246696472" stop-color="#bf9a3f"></stop><stop offset="1" stop-color="#dbbe6e"></stop></linearGradient><clipPath id="clip-054714fd"><path d="M 39.58142852783203 131.3212127685547 L 38.47200012207031 131.6572418212891 L 38.47200012207031 133.1103668212891 L 39.58142852783203 132.7740478515625 L 41.51647567749023 132.182861328125 L 41.51647567749023 130.7320098876953 L 39.58142852783203 131.3212127685547 Z" transform="matrix(1,0,0,1,-38.47200012207031,-130.7320098876953)" fill="#cccccc"/></clipPath><linearGradient id="gradient-14fd2d27" x1="-3.710757255554199" y1="-1.5590918064117432" x2="8.656784057617188" y2="-1.6386561393737793"><stop offset="0" stop-color="#d1af56"></stop><stop offset="0.2719529867172241" stop-color="#eede90"></stop><stop offset="0.6484820246696472" stop-color="#bf9a3f"></stop><stop offset="1" stop-color="#dbbe6e"></stop></linearGradient><clipPath id="clip-83074d84"><path d="M 79.19853210449219 90.24665832519531 L 76.22274017333984 91.15116882324219 L 76.22274017333984 93.00164031982422 C 76.19293975830078 93.20087432861328 76.08537292480469 93.37995910644531 75.92388916015625 93.50029754638672 C 75.58614349365234 93.75119018554688 75.10905456542969 93.68109130859375 74.85787963867188 93.34335327148438 L 74.85787963867188 91.56468200683594 L 70.34182739257812 92.93834686279297 L 70.34182739257812 99.95309448242188 C 70.32763671875 100.6260223388672 68.79844665527344 100.7435150146484 68.79844665527344 100.2570648193359 L 68.79844665527344 98.63733673095703 L 64.36299896240234 99.98488616943359 L 64.36299896240234 102.7461090087891 C 64.40017700195312 103.0682373046875 64.67121887207031 103.4102325439453 65.36685180664062 103.2586822509766 C 65.397216796875 103.2524337768555 68.79844665527344 102.2150955200195 68.79844665527344 102.2150955200195 L 70.34182739257812 101.7459487915039 L 73.7813720703125 100.6986770629883 C 74.41371154785156 100.5232849121094 74.87150573730469 99.97551727294922 74.93195343017578 99.3218994140625 L 74.93195343017578 95.28491973876953 L 76.05500793457031 94.94320678710938 L 79.07563781738281 94.02450561523438 C 80.09651947021484 93.65639495849609 80.54608154296875 93.02008819580078 80.54608154296875 92.51490020751953 L 80.54608154296875 89.83200073242188 L 79.19853210449219 90.24665832519531 Z" transform="matrix(1,0,0,1,-64.36299896240234,-89.83200073242188)" fill="#cccccc"/></clipPath><linearGradient id="gradient-ad79cb10" x1="-1.1404709815979004" y1="-0.2960846722126007" x2="1.186198115348816" y2="-0.35182541608810425"><stop offset="0" stop-color="#d1af56"></stop><stop offset="0.2719529867172241" stop-color="#eede90"></stop><stop offset="0.6484820246696472" stop-color="#bf9a3f"></stop><stop offset="1" stop-color="#dbbe6e"></stop></linearGradient><clipPath id="clip-e02f290d"><path d="M 0 5.48783016204834 C 39.89660263061523 9.154708862304688 35.62974166870117 18.96020317077637 28.89341354370117 24.12476921081543 C 42.51876068115234 14.66609477996826 39.03664779663086 -0.001135256607085466 21.62748908996582 0 C 15.8924560546875 0.0005676283035427332 8.643842697143555 1.592764854431152 0 5.48783016204834" fill="#cccccc"/></clipPath><linearGradient id="gradient-98de67f3" x1="-0.03337516263127327" y1="0.3529622554779053" x2="0.9144794940948486" y2="0.3529622554779053"><stop offset="0" stop-color="#d1af56"></stop><stop offset="0.2719529867172241" stop-color="#eede90"></stop><stop offset="0.6484820246696472" stop-color="#bf9a3f"></stop><stop offset="1" stop-color="#dbbe6e"></stop></linearGradient><clipPath id="clip-2f3dedc1"><path d="M 27.28696441650391 99.09439849853516 L 27.27845001220703 100.8858337402344 L 27.25773048400879 104.3690795898438 C 27.21969985961914 104.8836364746094 26.10062026977539 104.9687805175781 26.02228927612305 104.6497802734375 L 26.02228927612305 102.6372528076172 L 21.30699920654297 104.0719299316406 L 21.30699920654297 106.6699676513672 C 21.41938972473145 107.2109222412109 22.12892532348633 107.4623794555664 22.85378646850586 107.3437347412109 L 26.02228927612305 106.3804779052734 L 26.17668151855469 106.3333587646484 L 27.28611373901367 105.9939270019531 L 29.22115707397461 105.4052886962891 L 29.71329116821289 105.2551574707031 L 32.07065200805664 104.5388031005859 L 32.75748062133789 104.3299179077148 L 33.53030776977539 104.093505859375 L 37.09387588500977 103.0053558349609 C 37.55195236206055 102.9159545898438 37.90217971801758 102.5447311401367 37.96433639526367 102.0821075439453 L 37.96433639526367 98.99761962890625 L 33.53569793701172 100.3494262695312 L 33.26806259155273 100.4300308227539 L 33.27685928344727 102.3250579833984 C 33.28112030029297 102.829963684082 32.11861419677734 103.0879516601562 32.09590911865234 102.6687545776367 L 32.08484268188477 100.1425247192383 L 32.07604217529297 97.63899993896484 L 27.28696441650391 99.09439849853516 Z" transform="matrix(1,0,0,1,-21.30699920654297,-97.63899993896484)" fill="#cccccc"/></clipPath><linearGradient id="gradient-91c30e49" x1="-0.30624276399612427" y1="-1.3667420148849487" x2="1.7951589822769165" y2="-1.3667420148849487"><stop offset="0" stop-color="#d1af56"></stop><stop offset="0.2719529867172241" stop-color="#eede90"></stop><stop offset="0.6484820246696472" stop-color="#bf9a3f"></stop><stop offset="1" stop-color="#dbbe6e"></stop></linearGradient><clipPath id="clip-3f121e7f"><rect x="0" y="0" width="1.3151931762695312" height="9.307116508483887" fill="#cccccc"/></clipPath><linearGradient id="gradient-ad57add7" x1="-28.212753295898438" y1="-1.3996859788894653" x2="0.9999934434890747" y2="-1.3590294122695923"><stop offset="0" stop-color="#d1af56"></stop><stop offset="0.2719529867172241" stop-color="#eede90"></stop><stop offset="0.6484820246696472" stop-color="#bf9a3f"></stop><stop offset="1" stop-color="#dbbe6e"></stop></linearGradient><clipPath id="clip-26ed38f2"><path d="M 97.26871490478516 144.8990020751953 L 97.26871490478516 153.0541229248047 L 95.21134948730469 153.0541229248047 L 95.21134948730469 152.1379699707031 C 95.21134948730469 149.7669830322266 93.28254699707031 147.8384704589844 90.91184997558594 147.8384704589844 L 90.77703094482422 147.8384704589844 L 90.77703094482422 149.1536560058594 L 90.91184997558594 149.1536560058594 C 92.55740356445312 149.1536560058594 93.89643859863281 150.4924163818359 93.89643859863281 152.1379699707031 L 93.89643859863281 153.0541229248047 L 89.60800170898438 153.0541229248047 L 89.60800170898438 154.3693084716797 L 98.58362579345703 154.3693084716797 L 98.58362579345703 144.8990020751953 L 97.26871490478516 144.8990020751953 Z" transform="matrix(1,0,0,1,-89.60800170898438,-144.8990020751953)" fill="#cccccc"/></clipPath><linearGradient id="gradient-76699563" x1="-2.880887746810913" y1="-1.2556620836257935" x2="1.3562684059143066" y2="-1.375537395477295"><stop offset="0" stop-color="#d1af56"></stop><stop offset="0.2719529867172241" stop-color="#eede90"></stop><stop offset="0.6484820246696472" stop-color="#bf9a3f"></stop><stop offset="1" stop-color="#dbbe6e"></stop></linearGradient><clipPath id="clip-2d4d8fe7"><path d="M 18.20611000061035 160.1437072753906 C 18.20611000061035 159.5599060058594 18.68121337890625 159.0850830078125 19.26473426818848 159.0850830078125 C 19.84854125976562 159.0850830078125 20.32336235046387 159.5599060058594 20.32336235046387 160.1437072753906 L 20.32336235046387 161.0067901611328 L 18.20611000061035 161.0067901611328 L 18.20611000061035 160.1437072753906 Z M 5.50429105758667 156.0638885498047 C 5.45888090133667 156.0670013427734 4.389753341674805 156.1640625 3.201707363128662 156.8954620361328 C 2.118388652801514 157.5621337890625 0.7089676856994629 158.9076995849609 0.1495700478553772 161.5278778076172 C 0.09309104084968567 161.7929534912109 0.04342356324195862 162.0526428222656 0 162.3086547851562 L 1.335345506668091 162.3086547851562 C 1.365713596343994 162.1417694091797 1.398919820785522 161.9731750488281 1.435531854629517 161.8020324707031 C 2.060774564743042 158.8750610351562 3.879739284515381 157.8746185302734 4.901470184326172 157.53857421875 L 4.901470184326172 162.3086547851562 L 4.901470184326172 162.3219909667969 L 6.023387432098389 162.3219909667969 L 24.11086273193359 162.3219909667969 L 24.11086273193359 158.0679016113281 C 24.11086273193359 156.9613037109375 23.21145439147949 156.0618896484375 22.10457992553711 156.0618896484375 L 19.13758659362793 156.0618896484375 L 19.13758659362793 157.3770904541016 L 22.10457992553711 157.3770904541016 C 22.48602485656738 157.3770904541016 22.79566764831543 157.6867370605469 22.79566764831543 158.0679016113281 L 22.79566764831543 161.0067901611328 L 21.63827323913574 161.0067901611328 L 21.63827323913574 160.1437072753906 C 21.63827323913574 158.8347625732422 20.57368659973145 157.7698974609375 19.26473426818848 157.7698974609375 C 17.95578384399414 157.7698974609375 16.89091491699219 158.8347625732422 16.89091491699219 160.1437072753906 L 16.89091491699219 161.0067901611328 L 14.98396682739258 161.0067901611328 L 14.98396682739258 156.0894165039062 L 13.66877269744873 156.0894165039062 L 13.66877269744873 161.0067901611328 L 11.07215690612793 161.0067901611328 L 11.07215690612793 156.0894165039062 L 9.756961822509766 156.0894165039062 L 9.756961822509766 161.0067901611328 L 6.216664791107178 161.0067901611328 L 6.216664791107178 156.0039978027344 L 5.50429105758667 156.0638885498047 Z" transform="matrix(1,0,0,1,0,-156.00399780273438)" fill="#cccccc"/></clipPath><linearGradient id="gradient-c651c543" x1="-0.029428038746118546" y1="-1.6622750759124756" x2="1.5420292615890503" y2="-1.729657530784607"><stop offset="0" stop-color="#d1af56"></stop><stop offset="0.2719529867172241" stop-color="#eede90"></stop><stop offset="0.6484820246696472" stop-color="#bf9a3f"></stop><stop offset="1" stop-color="#dbbe6e"></stop></linearGradient><clipPath id="clip-48055892"><rect x="0" y="0" width="1.2927733659744263" height="1.3151942491531372" fill="#cccccc"/></clipPath><linearGradient id="gradient-2ae13c9e" x1="-20.94957160949707" y1="-0.974086582660675" x2="7.919897079467773" y2="-1.5135774612426758"><stop offset="0" stop-color="#d1af56"></stop><stop offset="0.2719529867172241" stop-color="#eede90"></stop><stop offset="0.6484820246696472" stop-color="#bf9a3f"></stop><stop offset="1" stop-color="#dbbe6e"></stop></linearGradient><clipPath id="clip-42b373b6"><rect x="0" y="0" width="1.2927731275558472" height="1.3151942491531372" fill="#cccccc"/></clipPath><linearGradient id="gradient-6a6e3809" x1="-3.2368898391723633" y1="-1.6214755773544312" x2="25.303203582763672" y2="-2.268864631652832"><stop offset="0" stop-color="#d1af56"></stop><stop offset="0.2719529867172241" stop-color="#eede90"></stop><stop offset="0.6484820246696472" stop-color="#bf9a3f"></stop><stop offset="1" stop-color="#dbbe6e"></stop></linearGradient><clipPath id="clip-784cbfb6"><rect x="0" y="0" width="1.2927732467651367" height="1.3151942491531372" fill="#cccccc"/></clipPath><linearGradient id="gradient-789c8af1" x1="-1.757195234298706" y1="-0.7582902312278748" x2="27.661012649536133" y2="-1.4056792259216309"><stop offset="0" stop-color="#d1af56"></stop><stop offset="0.2719529867172241" stop-color="#eede90"></stop><stop offset="0.6484820246696472" stop-color="#bf9a3f"></stop><stop offset="1" stop-color="#dbbe6e"></stop></linearGradient><clipPath id="clip-5deef501"><rect x="0" y="0" width="1.2927733659744263" height="1.3151946067810059" fill="#cccccc"/></clipPath><linearGradient id="gradient-ef742243" x1="-7.774531841278076" y1="-1.3180643320083618" x2="21.094816207885742" y2="-1.2101662158966064"><stop offset="0" stop-color="#d1af56"></stop><stop offset="0.2719529867172241" stop-color="#eede90"></stop><stop offset="0.6484820246696472" stop-color="#bf9a3f"></stop><stop offset="1" stop-color="#dbbe6e"></stop></linearGradient><clipPath id="clip-05396927"><rect x="0" y="0" width="1.2927733659744263" height="1.3151946067810059" fill="#cccccc"/></clipPath><linearGradient id="gradient-a291c872" x1="-10.5394287109375" y1="-1.8575551509857178" x2="18.439762115478516" y2="-1.9654532670974731"><stop offset="0" stop-color="#d1af56"></stop><stop offset="0.2719529867172241" stop-color="#eede90"></stop><stop offset="0.6484820246696472" stop-color="#bf9a3f"></stop><stop offset="1" stop-color="#dbbe6e"></stop></linearGradient><clipPath id="clip-01831196"><rect x="0" y="0" width="1.2927733659744263" height="1.3151946067810059" fill="#cccccc"/></clipPath><linearGradient id="gradient-f8b7fdf7" x1="-5.745987415313721" y1="-1.6417587995529175" x2="23.01361656188965" y2="-1.4259625673294067"><stop offset="0" stop-color="#d1af56"></stop><stop offset="0.2719529867172241" stop-color="#eede90"></stop><stop offset="0.6484820246696472" stop-color="#bf9a3f"></stop><stop offset="1" stop-color="#dbbe6e"></stop></linearGradient><clipPath id="clip-c2dedc1a"><path d="M 36.16392135620117 56.82022094726562 L 36.16392135620117 56.82447814941406 L 36.16704177856445 56.81794738769531 L 36.16392135620117 56.82022094726562 M 19.62266731262207 63.22136306762695 L 19.63146591186523 61.42964172363281 L 24.42054557800293 59.97452926635742 L 24.42934226989746 62.47776794433594 C 28.6059513092041 61.19947052001953 32.56317138671875 59.29167175292969 36.16392135620117 56.82022094726562 C 36.16023254394531 55.88590240478516 34.9798469543457 55.42640686035156 33.16826248168945 55.16019058227539 C 26.28832626342773 54.14697265625 10.28631687164307 55.92336273193359 14.98173809051514 45.05300140380859 C 7.971245288848877 52.3444709777832 9.359096527099609 63.34964752197266 19.62266731262207 63.22136306762695" transform="matrix(1,0,0,1,-10.626852035522461,-45.053001403808594)" fill="#cccccc"/></clipPath><linearGradient id="gradient-3c9a9a38" x1="0" y1="0.3869735300540924" x2="1.295774221420288" y2="0.3869735300540924"><stop offset="0" stop-color="#d1af56"></stop><stop offset="0.2719529867172241" stop-color="#eede90"></stop><stop offset="0.6484820246696472" stop-color="#bf9a3f"></stop><stop offset="1" stop-color="#dbbe6e"></stop></linearGradient><clipPath id="clip-3c6be954"><path d="M 106.1380004882812 112.2323760986328 L 106.1380004882812 113.5580673217773 L 109.1183319091797 112.6515655517578 L 109.1183319091797 111.3270034790039 L 106.1380004882812 112.2323760986328 Z" transform="matrix(1,0,0,1,-106.13800048828125,-111.3270034790039)" fill="#cccccc"/></clipPath><linearGradient id="gradient-f758b93f" x1="-10.043938636779785" y1="-1.568110466003418" x2="2.653273105621338" y2="-1.9073485136032104"><stop offset="0" stop-color="#d1af56"></stop><stop offset="0.2719529867172241" stop-color="#eede90"></stop><stop offset="0.6484820246696472" stop-color="#bf9a3f"></stop><stop offset="1" stop-color="#dbbe6e"></stop></linearGradient><clipPath id="clip-1037490e"><path d="M 53.29064178466797 126.6428909301758 L 50.93299865722656 127.3612213134766 L 50.93299865722656 128.8123626708984 L 53.29064178466797 128.09375 L 53.97747039794922 127.8848571777344 L 53.97747039794922 126.4340057373047 L 53.29064178466797 126.6428909301758 Z" transform="matrix(1,0,0,1,-50.93299865722656,-126.43400573730469)" fill="#cccccc"/></clipPath><linearGradient id="gradient-47a6cf03" x1="-4.748111724853516" y1="-1.6031122207641602" x2="7.495138168334961" y2="-2.0008749961853027"><stop offset="0" stop-color="#d1af56"></stop><stop offset="0.2719529867172241" stop-color="#eede90"></stop><stop offset="0.6484820246696472" stop-color="#bf9a3f"></stop><stop offset="1" stop-color="#dbbe6e"></stop></linearGradient><clipPath id="clip-054714fd"><path d="M 39.58142852783203 131.3212127685547 L 38.47200012207031 131.6572418212891 L 38.47200012207031 133.1103668212891 L 39.58142852783203 132.7740478515625 L 41.51647567749023 132.182861328125 L 41.51647567749023 130.7320098876953 L 39.58142852783203 131.3212127685547 Z" transform="matrix(1,0,0,1,-38.47200012207031,-130.7320098876953)" fill="#cccccc"/></clipPath><linearGradient id="gradient-14fd2d27" x1="-3.710757255554199" y1="-1.5590918064117432" x2="8.656784057617188" y2="-1.6386561393737793"><stop offset="0" stop-color="#d1af56"></stop><stop offset="0.2719529867172241" stop-color="#eede90"></stop><stop offset="0.6484820246696472" stop-color="#bf9a3f"></stop><stop offset="1" stop-color="#dbbe6e"></stop></linearGradient><clipPath id="clip-83074d84"><path d="M 79.19853210449219 90.24665832519531 L 76.22274017333984 91.15116882324219 L 76.22274017333984 93.00164031982422 C 76.19293975830078 93.20087432861328 76.08537292480469 93.37995910644531 75.92388916015625 93.50029754638672 C 75.58614349365234 93.75119018554688 75.10905456542969 93.68109130859375 74.85787963867188 93.34335327148438 L 74.85787963867188 91.56468200683594 L 70.34182739257812 92.93834686279297 L 70.34182739257812 99.95309448242188 C 70.32763671875 100.6260223388672 68.79844665527344 100.7435150146484 68.79844665527344 100.2570648193359 L 68.79844665527344 98.63733673095703 L 64.36299896240234 99.98488616943359 L 64.36299896240234 102.7461090087891 C 64.40017700195312 103.0682373046875 64.67121887207031 103.4102325439453 65.36685180664062 103.2586822509766 C 65.397216796875 103.2524337768555 68.79844665527344 102.2150955200195 68.79844665527344 102.2150955200195 L 70.34182739257812 101.7459487915039 L 73.7813720703125 100.6986770629883 C 74.41371154785156 100.5232849121094 74.87150573730469 99.97551727294922 74.93195343017578 99.3218994140625 L 74.93195343017578 95.28491973876953 L 76.05500793457031 94.94320678710938 L 79.07563781738281 94.02450561523438 C 80.09651947021484 93.65639495849609 80.54608154296875 93.02008819580078 80.54608154296875 92.51490020751953 L 80.54608154296875 89.83200073242188 L 79.19853210449219 90.24665832519531 Z" transform="matrix(1,0,0,1,-64.36299896240234,-89.83200073242188)" fill="#cccccc"/></clipPath><linearGradient id="gradient-ad79cb10" x1="-1.1404709815979004" y1="-0.2960846722126007" x2="1.186198115348816" y2="-0.35182541608810425"><stop offset="0" stop-color="#d1af56"></stop><stop offset="0.2719529867172241" stop-color="#eede90"></stop><stop offset="0.6484820246696472" stop-color="#bf9a3f"></stop><stop offset="1" stop-color="#dbbe6e"></stop></linearGradient><clipPath id="clip-e02f290d"><path d="M 0 5.48783016204834 C 39.89660263061523 9.154708862304688 35.62974166870117 18.96020317077637 28.89341354370117 24.12476921081543 C 42.51876068115234 14.66609477996826 39.03664779663086 -0.001135256607085466 21.62748908996582 0 C 15.8924560546875 0.0005676283035427332 8.643842697143555 1.592764854431152 0 5.48783016204834" fill="#cccccc"/></clipPath><linearGradient id="gradient-98de67f3" x1="-0.03337516263127327" y1="0.3529622554779053" x2="0.9144794940948486" y2="0.3529622554779053"><stop offset="0" stop-color="#d1af56"></stop><stop offset="0.2719529867172241" stop-color="#eede90"></stop><stop offset="0.6484820246696472" stop-color="#bf9a3f"></stop><stop offset="1" stop-color="#dbbe6e"></stop></linearGradient><clipPath id="clip-2f3dedc1"><path d="M 27.28696441650391 99.09439849853516 L 27.27845001220703 100.8858337402344 L 27.25773048400879 104.3690795898438 C 27.21969985961914 104.8836364746094 26.10062026977539 104.9687805175781 26.02228927612305 104.6497802734375 L 26.02228927612305 102.6372528076172 L 21.30699920654297 104.0719299316406 L 21.30699920654297 106.6699676513672 C 21.41938972473145 107.2109222412109 22.12892532348633 107.4623794555664 22.85378646850586 107.3437347412109 L 26.02228927612305 106.3804779052734 L 26.17668151855469 106.3333587646484 L 27.28611373901367 105.9939270019531 L 29.22115707397461 105.4052886962891 L 29.71329116821289 105.2551574707031 L 32.07065200805664 104.5388031005859 L 32.75748062133789 104.3299179077148 L 33.53030776977539 104.093505859375 L 37.09387588500977 103.0053558349609 C 37.55195236206055 102.9159545898438 37.90217971801758 102.5447311401367 37.96433639526367 102.0821075439453 L 37.96433639526367 98.99761962890625 L 33.53569793701172 100.3494262695312 L 33.26806259155273 100.4300308227539 L 33.27685928344727 102.3250579833984 C 33.28112030029297 102.829963684082 32.11861419677734 103.0879516601562 32.09590911865234 102.6687545776367 L 32.08484268188477 100.1425247192383 L 32.07604217529297 97.63899993896484 L 27.28696441650391 99.09439849853516 Z" transform="matrix(1,0,0,1,-21.30699920654297,-97.63899993896484)" fill="#cccccc"/></clipPath><linearGradient id="gradient-91c30e49" x1="-0.30624276399612427" y1="-1.3667420148849487" x2="1.7951589822769165" y2="-1.3667420148849487"><stop offset="0" stop-color="#d1af56"></stop><stop offset="0.2719529867172241" stop-color="#eede90"></stop><stop offset="0.6484820246696472" stop-color="#bf9a3f"></stop><stop offset="1" stop-color="#dbbe6e"></stop></linearGradient></defs><g transform="matrix(1,0,0,1,830,-2246)"><g transform="matrix(1,0,0,1,-764,2909)"><g transform="matrix(1,0,0,1,35.97003173828125,41.12466812133789)"><g clip-path="url(#clip-3f121e7f)"><rect x="0" y="0" width="1.3151954412460327" height="9.307116508483887" transform="matrix(1,0,0,1,-0.0000021653299882018473,0)" fill="url(#gradient-ad57add7)"/></g></g><g transform="matrix(1,0,0,1,25.432016372680664,41.12438201904297)"><g clip-path="url(#clip-26ed38f2)"><rect x="0" y="0" width="8.975617408752441" height="9.470308303833008" fill="url(#gradient-76699563)"/></g></g><g transform="matrix(1,0,0,1,0,44.27613830566406)"><g clip-path="url(#clip-2d4d8fe7)"><rect x="0" y="0" width="24.110858917236328" height="6.317986011505127" transform="matrix(1,0,0,1,2.706662485252309e-7,0)" fill="url(#gradient-c651c543)"/></g></g><g transform="matrix(1,0,0,1,26.657241821289062,41.44083786010742)"><g clip-path="url(#clip-48055892)"><rect x="0" y="0" width="1.2927690744400024" height="1.3151942491531372" fill="url(#gradient-2ae13c9e)"/></g></g><g transform="matrix(1,0,0,1,4.468369483947754,41.44083786010742)"><g clip-path="url(#clip-42b373b6)"><rect x="0" y="0" width="1.2927720546722412" height="1.3151942491531372" fill="url(#gradient-6a6e3809)"/></g></g><g transform="matrix(1,0,0,1,1.987834095954895,41.44083786010742)"><g clip-path="url(#clip-784cbfb6)"><rect x="0" y="0" width="1.292773962020874" height="1.3151942491531372" transform="matrix(1,0,0,1,-4.0599934436613694e-7,0)" fill="url(#gradient-789c8af1)"/></g></g><g transform="matrix(1,0,0,1,9.908802032470703,51.68482208251953)"><g clip-path="url(#clip-5deef501)"><rect x="0" y="0" width="1.2927744388580322" height="1.3151946067810059" fill="url(#gradient-ef742243)"/></g></g><g transform="matrix(1,0,0,1,13.48315715789795,51.68482208251953)"><g clip-path="url(#clip-05396927)"><rect x="0" y="0" width="1.2927712202072144" height="1.3151946067810059" fill="url(#gradient-a291c872)"/></g></g><g transform="matrix(1,0,0,1,7.428267002105713,51.68482208251953)"><g clip-path="url(#clip-01831196)"><rect x="0" y="0" width="1.2927733659744263" height="1.3151946067810059" fill="url(#gradient-f8b7fdf7)"/></g></g><g transform="matrix(1,0,0,1,2.9701548101788475,12.804713058547186)"><g clip-path="url(#clip-c2dedc1a)"><rect x="0" y="0" width="28.1957950592041" height="18.29664421081543" transform="matrix(1,0,0,1,-2.655606746673584,0.0000021653299882018473)" fill="url(#gradient-3c9a9a38)"/></g></g><g transform="matrix(1,0,0,1,30.123462677001953,31.596176147460938)"><g clip-path="url(#clip-3c6be954)"><rect x="0" y="0" width="2.980329751968384" height="2.231060743331909" transform="matrix(1,0,0,1,0,0.0000021653299882018473)" fill="url(#gradient-f758b93f)"/></g></g><g transform="matrix(1,0,0,1,14.455504417419434,35.88375473022461)"><g clip-path="url(#clip-1037490e)"><rect x="0" y="0" width="3.04447340965271" height="2.3783626556396484" transform="matrix(1,0,0,1,-0.0000010826649941009236,0)" fill="url(#gradient-47a6cf03)"/></g></g><g transform="matrix(1,0,0,1,10.918896675109863,37.10359191894531)"><g clip-path="url(#clip-054714fd)"><rect x="0" y="0" width="3.0444743633270264" height="2.378361463546753" fill="url(#gradient-14fd2d27)"/></g></g><g transform="matrix(1,0,0,1,18.267127990722656,25.495590209960938)"><g clip-path="url(#clip-83074d84)"><rect x="0" y="0" width="16.183082580566406" height="13.578234672546387" transform="matrix(1,0,0,1,-0.0000021653299882018473,0.0000021653299882018473)" fill="url(#gradient-ad79cb10)"/></g></g><g><g clip-path="url(#clip-e02f290d)"><rect x="0" y="0" width="42.518760681152344" height="24.125900268554688" transform="matrix(1,0,0,1,2.706662485252309e-7,-0.0011303022038191557)" fill="url(#gradient-98de67f3)"/></g></g><g transform="matrix(1,0,0,1,6.047227382659912,27.711326599121094)"><g clip-path="url(#clip-2f3dedc1)"><rect x="0" y="0" width="16.65733528137207" height="9.823371887207031" transform="matrix(1,0,0,1,0,0.000004330659976403695)" fill="url(#gradient-91c30e49)"/></g></g></g></g></svg>